<?xml version="1.0" encoding="UTF-8" standalone="no"?>
<!-- Generator: Adobe Illustrator 16.0.0, SVG Export Plug-In . SVG Version: 6.00 Build 0)  -->

<svg
   xmlns:dc="http://purl.org/dc/elements/1.1/"
   xmlns:cc="http://creativecommons.org/ns#"
   xmlns:rdf="http://www.w3.org/1999/02/22-rdf-syntax-ns#"
   xmlns:svg="http://www.w3.org/2000/svg"
   xmlns="http://www.w3.org/2000/svg"
   xmlns:sodipodi="http://sodipodi.sourceforge.net/DTD/sodipodi-0.dtd"
   xmlns:inkscape="http://www.inkscape.org/namespaces/inkscape"
   version="1.1"
   id="Capa_1"
   x="0px"
   y="0px"
   width="14.000006"
   height="14.000419"
   viewBox="0 0 14.000006 14.000419"
   xml:space="preserve"
   sodipodi:docname="delete-button.svg"
   inkscape:version="0.92.4 (f8dce91, 2019-08-02)"><metadata
   id="metadata49"><rdf:RDF><cc:Work
       rdf:about=""><dc:format>image/svg+xml</dc:format><dc:type
         rdf:resource="http://purl.org/dc/dcmitype/StillImage" /><dc:title></dc:title></cc:Work></rdf:RDF></metadata><defs
   id="defs47" /><sodipodi:namedview
   pagecolor="#ffffff"
   bordercolor="#666666"
   borderopacity="1"
   objecttolerance="10"
   gridtolerance="10"
   guidetolerance="10"
   inkscape:pageopacity="0"
   inkscape:pageshadow="2"
   inkscape:window-width="1853"
   inkscape:window-height="1025"
   id="namedview45"
   showgrid="false"
   inkscape:pagecheckerboard="true"
   fit-margin-top="0"
   fit-margin-left="0"
   fit-margin-right="0"
   fit-margin-bottom="0"
   inkscape:zoom="11.069133"
   inkscape:cx="2.2740191"
   inkscape:cy="0.92790168"
   inkscape:window-x="67"
   inkscape:window-y="27"
   inkscape:window-maximized="1"
   inkscape:current-layer="Capa_1" />
<g
   id="g12"
   style="fill:#ffffff;stroke:#ffffff;stroke-width:7.74688721"
   transform="matrix(0.03518775,0,0,0.02856203,-1.4877928,0.11063341)">
	<g
   id="g10"
   style="fill:#ffffff;stroke:#ffffff;stroke-width:7.74688721">
		<path
   d="M 381.163,57.799 H 306.069 C 302.323,25.316 274.686,0 241.214,0 207.743,0 180.11,25.315 176.364,57.799 h -75.098 c -30.39,0 -55.111,24.728 -55.111,55.117 v 2.828 c 0,23.223 14.46,43.1 34.83,51.199 v 260.369 c 0,30.39 24.724,55.117 55.112,55.117 h 210.236 c 30.389,0 55.111,-24.729 55.111,-55.117 V 166.944 c 20.369,-8.1 34.83,-27.977 34.83,-51.199 v -2.828 c 0,-30.39 -24.723,-55.118 -55.111,-55.118 z M 241.214,26.139 c 19.037,0 34.927,13.645 38.443,31.66 h -76.879 c 3.515,-18.016 19.406,-31.66 38.436,-31.66 z m 134.091,401.173 c 0,15.978 -13,28.979 -28.973,28.979 H 136.096 c -15.973,0 -28.973,-13.002 -28.973,-28.979 V 170.861 h 268.182 z m 34.83,-311.568 c 0,15.978 -13,28.979 -28.973,28.979 H 101.266 c -15.973,0 -28.973,-13.001 -28.973,-28.979 v -2.828 c 0,-15.978 13,-28.979 28.973,-28.979 h 279.897 c 15.973,0 28.973,13.001 28.973,28.979 v 2.828 z"
   id="path2"
   style="fill:#ffffff;stroke:#ffffff;stroke-width:7.74688721"
   inkscape:connector-curvature="0" />
		<path
   d="m 171.144,422.863 c 7.218,0 13.069,-5.853 13.069,-13.068 V 262.641 c 0,-7.216 -5.852,-13.07 -13.069,-13.07 -7.217,0 -13.069,5.854 -13.069,13.07 v 147.154 c -10e-4,7.217 5.851,13.068 13.069,13.068 z"
   id="path4"
   style="fill:#ffffff;stroke:#ffffff;stroke-width:7.74688721"
   inkscape:connector-curvature="0" />
		<path
   d="m 241.214,422.863 c 7.218,0 13.07,-5.853 13.07,-13.068 V 262.641 c 0,-7.216 -5.854,-13.07 -13.07,-13.07 -7.217,0 -13.069,5.854 -13.069,13.07 v 147.154 c 0,7.217 5.851,13.068 13.069,13.068 z"
   id="path6"
   style="fill:#ffffff;stroke:#ffffff;stroke-width:7.74688721"
   inkscape:connector-curvature="0" />
		<path
   d="m 311.284,422.863 c 7.217,0 13.068,-5.853 13.068,-13.068 V 262.641 c 0,-7.216 -5.852,-13.07 -13.068,-13.07 -7.219,0 -13.07,5.854 -13.07,13.07 v 147.154 c -10e-4,7.217 5.853,13.068 13.07,13.068 z"
   id="path8"
   style="fill:#ffffff;stroke:#ffffff;stroke-width:7.74688721"
   inkscape:connector-curvature="0" />
	</g>
</g>
<g
   id="g14"
   transform="translate(-239.84679,-222.70041)">
</g>
<g
   id="g16"
   transform="translate(-239.84679,-222.70041)">
</g>
<g
   id="g18"
   transform="translate(-239.84679,-222.70041)">
</g>
<g
   id="g20"
   transform="translate(-239.84679,-222.70041)">
</g>
<g
   id="g22"
   transform="translate(-239.84679,-222.70041)">
</g>
<g
   id="g24"
   transform="translate(-239.84679,-222.70041)">
</g>
<g
   id="g26"
   transform="translate(-239.84679,-222.70041)">
</g>
<g
   id="g28"
   transform="translate(-239.84679,-222.70041)">
</g>
<g
   id="g30"
   transform="translate(-239.84679,-222.70041)">
</g>
<g
   id="g32"
   transform="translate(-239.84679,-222.70041)">
</g>
<g
   id="g34"
   transform="translate(-239.84679,-222.70041)">
</g>
<g
   id="g36"
   transform="translate(-239.84679,-222.70041)">
</g>
<g
   id="g38"
   transform="translate(-239.84679,-222.70041)">
</g>
<g
   id="g40"
   transform="translate(-239.84679,-222.70041)">
</g>
<g
   id="g42"
   transform="translate(-239.84679,-222.70041)">
</g>
</svg>